<?xml version="1.0" encoding="UTF-8" standalone="no" ?>
<!DOCTYPE svg PUBLIC "-//W3C//DTD SVG 1.1//EN" "http://www.w3.org/Graphics/SVG/1.1/DTD/svg11.dtd">
<svg xmlns="http://www.w3.org/2000/svg" xmlns:xlink="http://www.w3.org/1999/xlink" version="1.1" width="875" height="768" viewBox="0 0 875 768" xml:space="preserve">
<desc>Created with Fabric.js 5.3.0</desc>
<defs>
</defs>
<g transform="matrix(1.4297325769 0 0 0.9030534771 395.3094469725 671.5227279637)" id="eq3UgrUiyCnaFmX6zYp7q"  >
<path style="stroke: rgb(0,0,0); stroke-width: 0; stroke-dasharray: none; stroke-linecap: butt; stroke-dashoffset: 0; stroke-linejoin: miter; stroke-miterlimit: 4; fill: rgb(235,230,181); fill-rule: nonzero; opacity: 1;"  transform=" translate(0, 0)" d="M -205.07011 49.5094 L -93.76562 -46.89075 L 205.07011999999997 -49.509389999999996 L 101.25739999999998 49.5094 z" stroke-linecap="round" />
</g>
<g transform="matrix(1.4814349233 0 0 0.4350240899 408.3987986227 647.1786560575)" id="-ZyBUv-o3tAWzAhb741m-"  >
<path style="stroke: rgb(24,132,246); stroke-width: 0; stroke-dasharray: none; stroke-linecap: butt; stroke-dashoffset: 0; stroke-linejoin: miter; stroke-miterlimit: 4; fill: rgb(79,77,60); fill-rule: nonzero; opacity: 1;"  transform=" translate(0, 0)" d="M 0 -86.2069 C 47.58621 -86.2069 86.2069 -47.58621 86.2069 0 C 86.2069 47.58621 47.58621 86.2069 0 86.2069 C -47.58621 86.2069 -86.2069 47.58621 -86.2069 0 C -86.2069 -47.58621 -47.58621 -86.2069 0 -86.2069 z" stroke-linecap="round" />
</g>
<g transform="matrix(1.3414696968 0 0 1.8059943141 786.0047636205 287.9512042176)" id="lh5AsQiyE4ODRuntnXB5r"  >
<path style="stroke: rgb(0,0,0); stroke-width: 0; stroke-dasharray: none; stroke-linecap: butt; stroke-dashoffset: 0; stroke-linejoin: miter; stroke-miterlimit: 4; fill: rgb(102,98,70); fill-rule: nonzero; opacity: 1;"  transform=" translate(0, 0)" d="M -53.40909 145.34906 L 53.40909 71.94105 L 53.40909 -109.87713000000001 L -53.40909 -145.34905 z" stroke-linecap="round" />
</g>
<g transform="matrix(2.9023082518 0 0 1.2912106637 409.3085762144 541.0322345964)" id="gJFJL4yB6HYZ-mmuybVIK"  >
<path style="stroke: rgb(24,132,246); stroke-width: 0; stroke-dasharray: none; stroke-linecap: butt; stroke-dashoffset: 0; stroke-linejoin: miter; stroke-miterlimit: 4; fill: rgb(129,126,100); fill-rule: nonzero; opacity: 1;"  transform=" translate(0, 0)" d="M 0 -86.2069 C 47.58621 -86.2069 86.2069 -47.58621 86.2069 0 C 86.2069 47.58621 47.58621 86.2069 0 86.2069 C -47.58621 86.2069 -86.2069 47.58621 -86.2069 0 C -86.2069 -47.58621 -47.58621 -86.2069 0 -86.2069 z" stroke-linecap="round" />
</g>
<g transform="matrix(5.2098470829 0 0 3.8390908079 379.4020914908 324.9741899055)" id="JZ2DWBqURtbaOlETiih4G"  >
<path style="stroke: rgb(128,116,108); stroke-width: 0; stroke-dasharray: none; stroke-linecap: butt; stroke-dashoffset: 0; stroke-linejoin: miter; stroke-miterlimit: 4; fill: rgb(212,207,165); fill-rule: nonzero; opacity: 1;"  transform=" translate(0, 0)" d="M -69.12955 -69.12955 L 69.12956 -69.12955 L 69.12956 69.12956 L -69.12955 69.12956 z" stroke-linecap="round" />
</g>
<g transform="matrix(1.081031537 0 0 0.1362448169 137.6219285732 550.4507781628)" id="TFwdlTPjFAKW0mzxw5fRn"  >
<path style="stroke: rgb(128,116,108); stroke-width: 0; stroke-dasharray: none; stroke-linecap: butt; stroke-dashoffset: 0; stroke-linejoin: miter; stroke-miterlimit: 4; fill: rgb(79,77,61); fill-rule: nonzero; opacity: 1;"  transform=" translate(0, 0)" d="M -69.12955 -69.12955 L 69.12956 -69.12955 L 69.12956 69.12956 L -69.12955 69.12956 z" stroke-linecap="round" />
</g>
<g transform="matrix(4.4916792339 0 0 0.1840231499 382.7438310291 603.0902661986)" id="YViBGXp4zm7MZp_6FslFU"  >
<path style="stroke: rgb(128,116,108); stroke-width: 0; stroke-dasharray: none; stroke-linecap: butt; stroke-dashoffset: 0; stroke-linejoin: miter; stroke-miterlimit: 4; fill: rgb(182,178,139); fill-rule: nonzero; opacity: 1;"  transform=" translate(0, 0)" d="M -69.12955 -69.12955 L 69.12956 -69.12955 L 69.12956 69.12956 L -69.12955 69.12956 z" stroke-linecap="round" />
</g>
<g transform="matrix(0.2469047508 0 0 0.1362448169 676.1832022354 550.450778114)" id="MtebrhC_BsqQhB_kR7FK2"  >
<path style="stroke: rgb(128,116,108); stroke-width: 0; stroke-dasharray: none; stroke-linecap: butt; stroke-dashoffset: 0; stroke-linejoin: miter; stroke-miterlimit: 4; fill: rgb(79,77,61); fill-rule: nonzero; opacity: 1;"  transform=" translate(0, 0)" d="M -69.12955 -69.12955 L 69.12956 -69.12955 L 69.12956 69.12956 L -69.12955 69.12956 z" stroke-linecap="round" />
</g>
<g transform="matrix(1.4297325769 0 0 1.2638062417 613.5665500218 684.6807327704)" id="lZ7jmIIG0Ls8baDsJ1YNy"  >
<path style="stroke: rgb(0,0,0); stroke-width: 0; stroke-dasharray: none; stroke-linecap: butt; stroke-dashoffset: 0; stroke-linejoin: miter; stroke-miterlimit: 4; fill: rgb(155,150,108); fill-rule: nonzero; opacity: 1;"  transform=" translate(0, 0)" d="M -52.41422 45.78838 L 52.41422 -28.1976 L 52.41422 -45.78837 L -52.41422 24.965559999999996 z" stroke-linecap="round" />
</g>
<g transform="matrix(1.8296305833 0 0 1.2912106637 762.7806314045 307.9102290613)" id="64YeCLseT1qd0nq4xkmrB"  >
<path style="stroke: rgb(0,0,0); stroke-width: 0; stroke-dasharray: none; stroke-linecap: butt; stroke-dashoffset: 0; stroke-linejoin: miter; stroke-miterlimit: 4; fill: rgb(155,150,108); fill-rule: nonzero; opacity: 1;"  transform=" translate(0, 0)" d="M -12.69334 218.75485 L 12.693350000000002 191.24389 L 12.693350000000002 -218.75485999999998 L -12.69334 -192.32390999999998 z" stroke-linecap="round" />
</g>
<g transform="matrix(4.578524964 0 0 2.9822012327 379.4020914908 313.6689488788)" id="X2KQOAjClpVbRMoJNE7TJ"  >
<path style="stroke: rgb(128,116,108); stroke-width: 0; stroke-dasharray: none; stroke-linecap: butt; stroke-dashoffset: 0; stroke-linejoin: miter; stroke-miterlimit: 4; fill: rgb(123,182,123); fill-rule: nonzero; opacity: 1;"  transform=" translate(0, 0)" d="M -69.12955 -69.12955 L 69.12956 -69.12955 L 69.12956 69.12956 L -69.12955 69.12956 z" stroke-linecap="round" />
</g>
<g transform="matrix(1.2690902062 0 0 1.2912106772 402.6262232227 42.5155913752)" id="sgQ6wCG1utVU5E8AVJFwV"  >
<path style="stroke: rgb(0,0,0); stroke-width: 0; stroke-dasharray: none; stroke-linecap: butt; stroke-dashoffset: 0; stroke-linejoin: miter; stroke-miterlimit: 4; fill: rgb(235,230,181); fill-rule: nonzero; opacity: 1;"  transform=" translate(0, 0)" d="M 302.08928 -13.21547 L -261.05153 -13.21547 L -302.08927 13.21548 L 265.48963 13.21548 z" stroke-linecap="round" />
</g>
<g transform="matrix(1.2912106637 0 0 0.8042577754 379.4020915394 516.3851057645)" id="O8XJhP6MpPEjYfDIvhmIm"  >
<path style="stroke: rgb(0,0,0); stroke-width: 0; stroke-dasharray: none; stroke-linecap: butt; stroke-dashoffset: 0; stroke-linejoin: miter; stroke-miterlimit: 4; fill: rgb(113,111,88); fill-rule: nonzero; opacity: 1;"  transform=" translate(0, 0)" d="M -245.12762 4.27983 L -237.79866 -4.27983 L 245.12760999999998 -4.27983 L 245.12760999999998 4.27983 z" stroke-linecap="round" />
</g>
<g transform="matrix(1.2912106637 0 0 1.2912106637 67.563372842 313.6689488788)" id="LemnSzw8Ah9MrC9fXdMGo"  >
<path style="stroke: rgb(0,0,0); stroke-width: 0; stroke-dasharray: none; stroke-linecap: butt; stroke-dashoffset: 0; stroke-linejoin: miter; stroke-miterlimit: 4; fill: rgb(122,120,95); fill-rule: nonzero; opacity: 1;"  transform=" translate(0, 0)" d="M 3.61883 154.33118 L 3.61883 -159.66275 L -3.61883 -159.66275 L -3.61883 159.66275 z" stroke-linecap="round" />
</g>
<g transform="matrix(1.2912106637 0 0 1.2912106637 714.3580867723 603.0902661669)" id="Py8h9Bb_1ocQNruo8u8vt"  >
<path style="stroke: rgb(0,0,0); stroke-width: 0; stroke-dasharray: none; stroke-linecap: butt; stroke-dashoffset: 0; stroke-linejoin: miter; stroke-miterlimit: 4; fill: rgb(155,150,108); fill-rule: nonzero; opacity: 1;"  transform=" translate(0, 0)" d="M -16.34626 9.85233 L 16.346269999999997 -9.85234 L -16.34626 -9.85234 z" stroke-linecap="round" />
</g>
<g transform="matrix(3.7103707518 0 0 0.2236860817 320.3711277417 729.3903647406)" id="CD_4Ce3v0FTF33zsW-ogY"  >
<path style="stroke: rgb(158,254,74); stroke-width: 0; stroke-dasharray: none; stroke-linecap: butt; stroke-dashoffset: 0; stroke-linejoin: miter; stroke-miterlimit: 4; fill: rgb(212,207,165); fill-rule: nonzero; opacity: 1;"  transform=" translate(0, 0)" d="M -58.82353 -58.82353 L 58.82353 -58.82353 L 58.82353 58.82353 L -58.82353 58.82353 z" stroke-linecap="round" />
</g>
<g transform="matrix(1.292660876 0 0 1.292660876 178.6892198339 603.1851865994)" id="_pZTvThS-3x96-_BA3QH-"  >
<g style=""   >
		<g transform="matrix(0.0247887746 0 0 0.1648051431 -72.2636034796 0.0734301708)" id="PjI5t6wOaVQggd5qWUc70"  >
<path style="stroke: rgb(158,254,74); stroke-width: 0; stroke-dasharray: none; stroke-linecap: butt; stroke-dashoffset: 0; stroke-linejoin: miter; stroke-miterlimit: 4; fill: rgb(79,77,61); fill-rule: nonzero; opacity: 1;"  transform=" translate(0, 0)" d="M -58.82353 -58.82353 L 58.82353 -58.82353 L 58.82353 58.82353 L -58.82353 58.82353 z" stroke-linecap="round" />
</g>
		<g transform="matrix(0.0247887746 0 0 0.1648051431 -62.6420568963 0.0734302666)" id="3i9NhkERwn5Hkdf69Fxhe"  >
<path style="stroke: rgb(158,254,74); stroke-width: 0; stroke-dasharray: none; stroke-linecap: butt; stroke-dashoffset: 0; stroke-linejoin: miter; stroke-miterlimit: 4; fill: rgb(79,77,61); fill-rule: nonzero; opacity: 1;"  transform=" translate(0, 0)" d="M -58.82353 -58.82353 L 58.82353 -58.82353 L 58.82353 58.82353 L -58.82353 58.82353 z" stroke-linecap="round" />
</g>
		<g transform="matrix(0.0247887746 0 0 0.1648051431 -53.2069997064 -0.2202918353)" id="ir9RWjCizvPPleJjK-cBK"  >
<path style="stroke: rgb(158,254,74); stroke-width: 0; stroke-dasharray: none; stroke-linecap: butt; stroke-dashoffset: 0; stroke-linejoin: miter; stroke-miterlimit: 4; fill: rgb(79,77,61); fill-rule: nonzero; opacity: 1;"  transform=" translate(0, 0)" d="M -58.82353 -58.82353 L 58.82353 -58.82353 L 58.82353 58.82353 L -58.82353 58.82353 z" stroke-linecap="round" />
</g>
		<g transform="matrix(0.0247887746 0 0 0.1648051431 -43.585453123 -0.2202917395)" id="_YinnBjBrJ2lHH5BvN48u"  >
<path style="stroke: rgb(158,254,74); stroke-width: 0; stroke-dasharray: none; stroke-linecap: butt; stroke-dashoffset: 0; stroke-linejoin: miter; stroke-miterlimit: 4; fill: rgb(79,77,61); fill-rule: nonzero; opacity: 1;"  transform=" translate(0, 0)" d="M -58.82353 -58.82353 L 58.82353 -58.82353 L 58.82353 58.82353 L -58.82353 58.82353 z" stroke-linecap="round" />
</g>
		<g transform="matrix(0.0247887746 0 0 0.1648051431 -34.339075178 0.3671522723)" id="ORLsRQ3nqzBUXiDl37QCr"  >
<path style="stroke: rgb(158,254,74); stroke-width: 0; stroke-dasharray: none; stroke-linecap: butt; stroke-dashoffset: 0; stroke-linejoin: miter; stroke-miterlimit: 4; fill: rgb(79,77,61); fill-rule: nonzero; opacity: 1;"  transform=" translate(0, 0)" d="M -58.82353 -58.82353 L 58.82353 -58.82353 L 58.82353 58.82353 L -58.82353 58.82353 z" stroke-linecap="round" />
</g>
		<g transform="matrix(0.0247887746 0 0 0.1648051431 -24.7175285947 0.3671523681)" id="vbkdEcZW-0aypc3YzzPw-"  >
<path style="stroke: rgb(158,254,74); stroke-width: 0; stroke-dasharray: none; stroke-linecap: butt; stroke-dashoffset: 0; stroke-linejoin: miter; stroke-miterlimit: 4; fill: rgb(79,77,61); fill-rule: nonzero; opacity: 1;"  transform=" translate(0, 0)" d="M -58.82353 -58.82353 L 58.82353 -58.82353 L 58.82353 58.82353 L -58.82353 58.82353 z" stroke-linecap="round" />
</g>
		<g transform="matrix(0.0247887746 0 0 0.1648051431 -15.2824714048 0.0734302661)" id="JIXswm5TuIapPbT3KCMVh"  >
<path style="stroke: rgb(158,254,74); stroke-width: 0; stroke-dasharray: none; stroke-linecap: butt; stroke-dashoffset: 0; stroke-linejoin: miter; stroke-miterlimit: 4; fill: rgb(79,77,61); fill-rule: nonzero; opacity: 1;"  transform=" translate(0, 0)" d="M -58.82353 -58.82353 L 58.82353 -58.82353 L 58.82353 58.82353 L -58.82353 58.82353 z" stroke-linecap="round" />
</g>
		<g transform="matrix(0.0247887746 0 0 0.1648051431 -5.6609248214 0.0734303619)" id="t1aLBwNrbh4iUh97gQXpm"  >
<path style="stroke: rgb(158,254,74); stroke-width: 0; stroke-dasharray: none; stroke-linecap: butt; stroke-dashoffset: 0; stroke-linejoin: miter; stroke-miterlimit: 4; fill: rgb(79,77,61); fill-rule: nonzero; opacity: 1;"  transform=" translate(0, 0)" d="M -58.82353 -58.82353 L 58.82353 -58.82353 L 58.82353 58.82353 L -58.82353 58.82353 z" stroke-linecap="round" />
</g>
		<g transform="matrix(0.0247887746 0 0 0.1648051431 4.660924822 -0.0734303619)" id="_pVRw_12gFwNmX1qDlzE5"  >
<path style="stroke: rgb(158,254,74); stroke-width: 0; stroke-dasharray: none; stroke-linecap: butt; stroke-dashoffset: 0; stroke-linejoin: miter; stroke-miterlimit: 4; fill: rgb(79,77,61); fill-rule: nonzero; opacity: 1;"  transform=" translate(0, 0)" d="M -58.82353 -58.82353 L 58.82353 -58.82353 L 58.82353 58.82353 L -58.82353 58.82353 z" stroke-linecap="round" />
</g>
		<g transform="matrix(0.0247887746 0 0 0.1648051431 15.2824714053 -0.0734302661)" id="XknmcbnCa358iqJW3Tged"  >
<path style="stroke: rgb(158,254,74); stroke-width: 0; stroke-dasharray: none; stroke-linecap: butt; stroke-dashoffset: 0; stroke-linejoin: miter; stroke-miterlimit: 4; fill: rgb(79,77,61); fill-rule: nonzero; opacity: 1;"  transform=" translate(0, 0)" d="M -58.82353 -58.82353 L 58.82353 -58.82353 L 58.82353 58.82353 L -58.82353 58.82353 z" stroke-linecap="round" />
</g>
		<g transform="matrix(0.0247887746 0 0 0.1648051431 24.7175285952 -0.3671523681)" id="87qo4EDGyoUluAq7_WtNT"  >
<path style="stroke: rgb(158,254,74); stroke-width: 0; stroke-dasharray: none; stroke-linecap: butt; stroke-dashoffset: 0; stroke-linejoin: miter; stroke-miterlimit: 4; fill: rgb(79,77,61); fill-rule: nonzero; opacity: 1;"  transform=" translate(0, 0)" d="M -58.82353 -58.82353 L 58.82353 -58.82353 L 58.82353 58.82353 L -58.82353 58.82353 z" stroke-linecap="round" />
</g>
		<g transform="matrix(0.0247887746 0 0 0.1648051431 34.3390751786 -0.3671522723)" id="a29HKJjTOgDY8IYlT5-xZ"  >
<path style="stroke: rgb(158,254,74); stroke-width: 0; stroke-dasharray: none; stroke-linecap: butt; stroke-dashoffset: 0; stroke-linejoin: miter; stroke-miterlimit: 4; fill: rgb(79,77,61); fill-rule: nonzero; opacity: 1;"  transform=" translate(0, 0)" d="M -58.82353 -58.82353 L 58.82353 -58.82353 L 58.82353 58.82353 L -58.82353 58.82353 z" stroke-linecap="round" />
</g>
		<g transform="matrix(0.0247887746 0 0 0.1648051431 43.5854531236 0.2202917395)" id="DcMftxO9A7d9SIJinHAz6"  >
<path style="stroke: rgb(158,254,74); stroke-width: 0; stroke-dasharray: none; stroke-linecap: butt; stroke-dashoffset: 0; stroke-linejoin: miter; stroke-miterlimit: 4; fill: rgb(79,77,61); fill-rule: nonzero; opacity: 1;"  transform=" translate(0, 0)" d="M -58.82353 -58.82353 L 58.82353 -58.82353 L 58.82353 58.82353 L -58.82353 58.82353 z" stroke-linecap="round" />
</g>
		<g transform="matrix(0.0247887746 0 0 0.1648051431 53.2069997069 0.2202918353)" id="97_19mGCqpdFla-KnGNeK"  >
<path style="stroke: rgb(158,254,74); stroke-width: 0; stroke-dasharray: none; stroke-linecap: butt; stroke-dashoffset: 0; stroke-linejoin: miter; stroke-miterlimit: 4; fill: rgb(79,77,61); fill-rule: nonzero; opacity: 1;"  transform=" translate(0, 0)" d="M -58.82353 -58.82353 L 58.82353 -58.82353 L 58.82353 58.82353 L -58.82353 58.82353 z" stroke-linecap="round" />
</g>
		<g transform="matrix(0.0247887746 0 0 0.1648051431 62.6420568968 -0.0734302667)" id="It8_WLF9hgwTOB_C6-zPX"  >
<path style="stroke: rgb(158,254,74); stroke-width: 0; stroke-dasharray: none; stroke-linecap: butt; stroke-dashoffset: 0; stroke-linejoin: miter; stroke-miterlimit: 4; fill: rgb(79,77,61); fill-rule: nonzero; opacity: 1;"  transform=" translate(0, 0)" d="M -58.82353 -58.82353 L 58.82353 -58.82353 L 58.82353 58.82353 L -58.82353 58.82353 z" stroke-linecap="round" />
</g>
		<g transform="matrix(0.0247887746 0 0 0.1648051431 72.2636034802 -0.0734301709)" id="ySscRCnya1npAyxMUQ37l"  >
<path style="stroke: rgb(158,254,74); stroke-width: 0; stroke-dasharray: none; stroke-linecap: butt; stroke-dashoffset: 0; stroke-linejoin: miter; stroke-miterlimit: 4; fill: rgb(79,77,61); fill-rule: nonzero; opacity: 1;"  transform=" translate(0, 0)" d="M -58.82353 -58.82353 L 58.82353 -58.82353 L 58.82353 58.82353 L -58.82353 58.82353 z" stroke-linecap="round" />
</g>
</g>
</g>
<g transform="matrix(1.292660876 0 0 1.292660876 379.8065958419 603.1851865994)" id="D2r7d57eTf_orwAHXg9yo"  >
<g style=""   >
		<g transform="matrix(0.0247887746 0 0 0.1648051431 -72.2636034796 0.0734301708)" id="MRksS4El3fqrt4wYCE2LH"  >
<path style="stroke: rgb(158,254,74); stroke-width: 0; stroke-dasharray: none; stroke-linecap: butt; stroke-dashoffset: 0; stroke-linejoin: miter; stroke-miterlimit: 4; fill: rgb(79,77,61); fill-rule: nonzero; opacity: 1;"  transform=" translate(0, 0)" d="M -58.82353 -58.82353 L 58.82353 -58.82353 L 58.82353 58.82353 L -58.82353 58.82353 z" stroke-linecap="round" />
</g>
		<g transform="matrix(0.0247887746 0 0 0.1648051431 -62.6420568963 0.0734302666)" id="Zf-e8pmuv8y07z0_LxVrg"  >
<path style="stroke: rgb(158,254,74); stroke-width: 0; stroke-dasharray: none; stroke-linecap: butt; stroke-dashoffset: 0; stroke-linejoin: miter; stroke-miterlimit: 4; fill: rgb(79,77,61); fill-rule: nonzero; opacity: 1;"  transform=" translate(0, 0)" d="M -58.82353 -58.82353 L 58.82353 -58.82353 L 58.82353 58.82353 L -58.82353 58.82353 z" stroke-linecap="round" />
</g>
		<g transform="matrix(0.0247887746 0 0 0.1648051431 -53.2069997064 -0.2202918353)" id="JbEzqnq46KOaMvWwR6Jva"  >
<path style="stroke: rgb(158,254,74); stroke-width: 0; stroke-dasharray: none; stroke-linecap: butt; stroke-dashoffset: 0; stroke-linejoin: miter; stroke-miterlimit: 4; fill: rgb(79,77,61); fill-rule: nonzero; opacity: 1;"  transform=" translate(0, 0)" d="M -58.82353 -58.82353 L 58.82353 -58.82353 L 58.82353 58.82353 L -58.82353 58.82353 z" stroke-linecap="round" />
</g>
		<g transform="matrix(0.0247887746 0 0 0.1648051431 -43.585453123 -0.2202917395)" id="2BGwuggTfummBmkHhY_i6"  >
<path style="stroke: rgb(158,254,74); stroke-width: 0; stroke-dasharray: none; stroke-linecap: butt; stroke-dashoffset: 0; stroke-linejoin: miter; stroke-miterlimit: 4; fill: rgb(79,77,61); fill-rule: nonzero; opacity: 1;"  transform=" translate(0, 0)" d="M -58.82353 -58.82353 L 58.82353 -58.82353 L 58.82353 58.82353 L -58.82353 58.82353 z" stroke-linecap="round" />
</g>
		<g transform="matrix(0.0247887746 0 0 0.1648051431 -34.339075178 0.3671522723)" id="KCpDrHv8OM-SiArRUqgRZ"  >
<path style="stroke: rgb(158,254,74); stroke-width: 0; stroke-dasharray: none; stroke-linecap: butt; stroke-dashoffset: 0; stroke-linejoin: miter; stroke-miterlimit: 4; fill: rgb(79,77,61); fill-rule: nonzero; opacity: 1;"  transform=" translate(0, 0)" d="M -58.82353 -58.82353 L 58.82353 -58.82353 L 58.82353 58.82353 L -58.82353 58.82353 z" stroke-linecap="round" />
</g>
		<g transform="matrix(0.0247887746 0 0 0.1648051431 -24.7175285947 0.3671523681)" id="lrTf-3vJJHORG1AKpmsCK"  >
<path style="stroke: rgb(158,254,74); stroke-width: 0; stroke-dasharray: none; stroke-linecap: butt; stroke-dashoffset: 0; stroke-linejoin: miter; stroke-miterlimit: 4; fill: rgb(79,77,61); fill-rule: nonzero; opacity: 1;"  transform=" translate(0, 0)" d="M -58.82353 -58.82353 L 58.82353 -58.82353 L 58.82353 58.82353 L -58.82353 58.82353 z" stroke-linecap="round" />
</g>
		<g transform="matrix(0.0247887746 0 0 0.1648051431 -15.2824714048 0.0734302661)" id="acVCgtS90YkWNlSELpcQ6"  >
<path style="stroke: rgb(158,254,74); stroke-width: 0; stroke-dasharray: none; stroke-linecap: butt; stroke-dashoffset: 0; stroke-linejoin: miter; stroke-miterlimit: 4; fill: rgb(79,77,61); fill-rule: nonzero; opacity: 1;"  transform=" translate(0, 0)" d="M -58.82353 -58.82353 L 58.82353 -58.82353 L 58.82353 58.82353 L -58.82353 58.82353 z" stroke-linecap="round" />
</g>
		<g transform="matrix(0.0247887746 0 0 0.1648051431 -5.6609248214 0.0734303619)" id="gt3eDxT3C17v9kXGZYmZo"  >
<path style="stroke: rgb(158,254,74); stroke-width: 0; stroke-dasharray: none; stroke-linecap: butt; stroke-dashoffset: 0; stroke-linejoin: miter; stroke-miterlimit: 4; fill: rgb(79,77,61); fill-rule: nonzero; opacity: 1;"  transform=" translate(0, 0)" d="M -58.82353 -58.82353 L 58.82353 -58.82353 L 58.82353 58.82353 L -58.82353 58.82353 z" stroke-linecap="round" />
</g>
		<g transform="matrix(0.0247887746 0 0 0.1648051431 4.660924822 -0.0734303619)" id="5eAg8siQL7mWkH4ZJk4fO"  >
<path style="stroke: rgb(158,254,74); stroke-width: 0; stroke-dasharray: none; stroke-linecap: butt; stroke-dashoffset: 0; stroke-linejoin: miter; stroke-miterlimit: 4; fill: rgb(79,77,61); fill-rule: nonzero; opacity: 1;"  transform=" translate(0, 0)" d="M -58.82353 -58.82353 L 58.82353 -58.82353 L 58.82353 58.82353 L -58.82353 58.82353 z" stroke-linecap="round" />
</g>
		<g transform="matrix(0.0247887746 0 0 0.1648051431 15.2824714053 -0.0734302661)" id="xF0r-8M6xZcCvJMRZA0Ok"  >
<path style="stroke: rgb(158,254,74); stroke-width: 0; stroke-dasharray: none; stroke-linecap: butt; stroke-dashoffset: 0; stroke-linejoin: miter; stroke-miterlimit: 4; fill: rgb(79,77,61); fill-rule: nonzero; opacity: 1;"  transform=" translate(0, 0)" d="M -58.82353 -58.82353 L 58.82353 -58.82353 L 58.82353 58.82353 L -58.82353 58.82353 z" stroke-linecap="round" />
</g>
		<g transform="matrix(0.0247887746 0 0 0.1648051431 24.7175285952 -0.3671523681)" id="JrXbNNEKz8_YZ_94d5kR7"  >
<path style="stroke: rgb(158,254,74); stroke-width: 0; stroke-dasharray: none; stroke-linecap: butt; stroke-dashoffset: 0; stroke-linejoin: miter; stroke-miterlimit: 4; fill: rgb(79,77,61); fill-rule: nonzero; opacity: 1;"  transform=" translate(0, 0)" d="M -58.82353 -58.82353 L 58.82353 -58.82353 L 58.82353 58.82353 L -58.82353 58.82353 z" stroke-linecap="round" />
</g>
		<g transform="matrix(0.0247887746 0 0 0.1648051431 34.3390751786 -0.3671522723)" id="WTJTTBSeApH4drYaggH4r"  >
<path style="stroke: rgb(158,254,74); stroke-width: 0; stroke-dasharray: none; stroke-linecap: butt; stroke-dashoffset: 0; stroke-linejoin: miter; stroke-miterlimit: 4; fill: rgb(79,77,61); fill-rule: nonzero; opacity: 1;"  transform=" translate(0, 0)" d="M -58.82353 -58.82353 L 58.82353 -58.82353 L 58.82353 58.82353 L -58.82353 58.82353 z" stroke-linecap="round" />
</g>
		<g transform="matrix(0.0247887746 0 0 0.1648051431 43.5854531236 0.2202917395)" id="q-suow2DNONzufHGlygms"  >
<path style="stroke: rgb(158,254,74); stroke-width: 0; stroke-dasharray: none; stroke-linecap: butt; stroke-dashoffset: 0; stroke-linejoin: miter; stroke-miterlimit: 4; fill: rgb(79,77,61); fill-rule: nonzero; opacity: 1;"  transform=" translate(0, 0)" d="M -58.82353 -58.82353 L 58.82353 -58.82353 L 58.82353 58.82353 L -58.82353 58.82353 z" stroke-linecap="round" />
</g>
		<g transform="matrix(0.0247887746 0 0 0.1648051431 53.2069997069 0.2202918353)" id="RVuZxnL1OABHSJtFbFuEA"  >
<path style="stroke: rgb(158,254,74); stroke-width: 0; stroke-dasharray: none; stroke-linecap: butt; stroke-dashoffset: 0; stroke-linejoin: miter; stroke-miterlimit: 4; fill: rgb(79,77,61); fill-rule: nonzero; opacity: 1;"  transform=" translate(0, 0)" d="M -58.82353 -58.82353 L 58.82353 -58.82353 L 58.82353 58.82353 L -58.82353 58.82353 z" stroke-linecap="round" />
</g>
		<g transform="matrix(0.0247887746 0 0 0.1648051431 62.6420568968 -0.0734302667)" id="NQQf04ryRzyovwuSpIf7i"  >
<path style="stroke: rgb(158,254,74); stroke-width: 0; stroke-dasharray: none; stroke-linecap: butt; stroke-dashoffset: 0; stroke-linejoin: miter; stroke-miterlimit: 4; fill: rgb(79,77,61); fill-rule: nonzero; opacity: 1;"  transform=" translate(0, 0)" d="M -58.82353 -58.82353 L 58.82353 -58.82353 L 58.82353 58.82353 L -58.82353 58.82353 z" stroke-linecap="round" />
</g>
		<g transform="matrix(0.0247887746 0 0 0.1648051431 72.2636034802 -0.0734301709)" id="GwZWXnKvXL_wtQ6rYZKt8"  >
<path style="stroke: rgb(158,254,74); stroke-width: 0; stroke-dasharray: none; stroke-linecap: butt; stroke-dashoffset: 0; stroke-linejoin: miter; stroke-miterlimit: 4; fill: rgb(79,77,61); fill-rule: nonzero; opacity: 1;"  transform=" translate(0, 0)" d="M -58.82353 -58.82353 L 58.82353 -58.82353 L 58.82353 58.82353 L -58.82353 58.82353 z" stroke-linecap="round" />
</g>
</g>
</g>
<g transform="matrix(1.292660876 0 0 1.292660876 580.8859587052 603.1851865994)" id="rdb6kGOnGqgkx0mOKdL57"  >
<g style=""   >
		<g transform="matrix(0.0247887746 0 0 0.1648051431 -72.2636034796 0.0734301708)" id="B-GXn66TDaUA3HI5Tbyzg"  >
<path style="stroke: rgb(158,254,74); stroke-width: 0; stroke-dasharray: none; stroke-linecap: butt; stroke-dashoffset: 0; stroke-linejoin: miter; stroke-miterlimit: 4; fill: rgb(79,77,61); fill-rule: nonzero; opacity: 1;"  transform=" translate(0, 0)" d="M -58.82353 -58.82353 L 58.82353 -58.82353 L 58.82353 58.82353 L -58.82353 58.82353 z" stroke-linecap="round" />
</g>
		<g transform="matrix(0.0247887746 0 0 0.1648051431 -62.6420568963 0.0734302666)" id="KJSKRZhJKA4gCwhb86as3"  >
<path style="stroke: rgb(158,254,74); stroke-width: 0; stroke-dasharray: none; stroke-linecap: butt; stroke-dashoffset: 0; stroke-linejoin: miter; stroke-miterlimit: 4; fill: rgb(79,77,61); fill-rule: nonzero; opacity: 1;"  transform=" translate(0, 0)" d="M -58.82353 -58.82353 L 58.82353 -58.82353 L 58.82353 58.82353 L -58.82353 58.82353 z" stroke-linecap="round" />
</g>
		<g transform="matrix(0.0247887746 0 0 0.1648051431 -53.2069997064 -0.2202918353)" id="B80y1lLdQgFnc92Usv5az"  >
<path style="stroke: rgb(158,254,74); stroke-width: 0; stroke-dasharray: none; stroke-linecap: butt; stroke-dashoffset: 0; stroke-linejoin: miter; stroke-miterlimit: 4; fill: rgb(79,77,61); fill-rule: nonzero; opacity: 1;"  transform=" translate(0, 0)" d="M -58.82353 -58.82353 L 58.82353 -58.82353 L 58.82353 58.82353 L -58.82353 58.82353 z" stroke-linecap="round" />
</g>
		<g transform="matrix(0.0247887746 0 0 0.1648051431 -43.585453123 -0.2202917395)" id="YBrWLQd_FwFMztXwqK51Z"  >
<path style="stroke: rgb(158,254,74); stroke-width: 0; stroke-dasharray: none; stroke-linecap: butt; stroke-dashoffset: 0; stroke-linejoin: miter; stroke-miterlimit: 4; fill: rgb(79,77,61); fill-rule: nonzero; opacity: 1;"  transform=" translate(0, 0)" d="M -58.82353 -58.82353 L 58.82353 -58.82353 L 58.82353 58.82353 L -58.82353 58.82353 z" stroke-linecap="round" />
</g>
		<g transform="matrix(0.0247887746 0 0 0.1648051431 -34.339075178 0.3671522723)" id="cDv2yrWl8Q_17JkFYgOVN"  >
<path style="stroke: rgb(158,254,74); stroke-width: 0; stroke-dasharray: none; stroke-linecap: butt; stroke-dashoffset: 0; stroke-linejoin: miter; stroke-miterlimit: 4; fill: rgb(79,77,61); fill-rule: nonzero; opacity: 1;"  transform=" translate(0, 0)" d="M -58.82353 -58.82353 L 58.82353 -58.82353 L 58.82353 58.82353 L -58.82353 58.82353 z" stroke-linecap="round" />
</g>
		<g transform="matrix(0.0247887746 0 0 0.1648051431 -24.7175285947 0.3671523681)" id="v4DwCUMBObIFdMwFjrYd6"  >
<path style="stroke: rgb(158,254,74); stroke-width: 0; stroke-dasharray: none; stroke-linecap: butt; stroke-dashoffset: 0; stroke-linejoin: miter; stroke-miterlimit: 4; fill: rgb(79,77,61); fill-rule: nonzero; opacity: 1;"  transform=" translate(0, 0)" d="M -58.82353 -58.82353 L 58.82353 -58.82353 L 58.82353 58.82353 L -58.82353 58.82353 z" stroke-linecap="round" />
</g>
		<g transform="matrix(0.0247887746 0 0 0.1648051431 -15.2824714048 0.0734302661)" id="T95HqPk0OACdJsJsc1_dr"  >
<path style="stroke: rgb(158,254,74); stroke-width: 0; stroke-dasharray: none; stroke-linecap: butt; stroke-dashoffset: 0; stroke-linejoin: miter; stroke-miterlimit: 4; fill: rgb(79,77,61); fill-rule: nonzero; opacity: 1;"  transform=" translate(0, 0)" d="M -58.82353 -58.82353 L 58.82353 -58.82353 L 58.82353 58.82353 L -58.82353 58.82353 z" stroke-linecap="round" />
</g>
		<g transform="matrix(0.0247887746 0 0 0.1648051431 -5.6609248214 0.0734303619)" id="CKIyVooMb4KAx3b87gOce"  >
<path style="stroke: rgb(158,254,74); stroke-width: 0; stroke-dasharray: none; stroke-linecap: butt; stroke-dashoffset: 0; stroke-linejoin: miter; stroke-miterlimit: 4; fill: rgb(79,77,61); fill-rule: nonzero; opacity: 1;"  transform=" translate(0, 0)" d="M -58.82353 -58.82353 L 58.82353 -58.82353 L 58.82353 58.82353 L -58.82353 58.82353 z" stroke-linecap="round" />
</g>
		<g transform="matrix(0.0247887746 0 0 0.1648051431 4.660924822 -0.0734303619)" id="G0WLB4-9HCcE1BMpN9tjR"  >
<path style="stroke: rgb(158,254,74); stroke-width: 0; stroke-dasharray: none; stroke-linecap: butt; stroke-dashoffset: 0; stroke-linejoin: miter; stroke-miterlimit: 4; fill: rgb(79,77,61); fill-rule: nonzero; opacity: 1;"  transform=" translate(0, 0)" d="M -58.82353 -58.82353 L 58.82353 -58.82353 L 58.82353 58.82353 L -58.82353 58.82353 z" stroke-linecap="round" />
</g>
		<g transform="matrix(0.0247887746 0 0 0.1648051431 15.2824714053 -0.0734302661)" id="l2TYBJpHkf-hEspyUtNnC"  >
<path style="stroke: rgb(158,254,74); stroke-width: 0; stroke-dasharray: none; stroke-linecap: butt; stroke-dashoffset: 0; stroke-linejoin: miter; stroke-miterlimit: 4; fill: rgb(79,77,61); fill-rule: nonzero; opacity: 1;"  transform=" translate(0, 0)" d="M -58.82353 -58.82353 L 58.82353 -58.82353 L 58.82353 58.82353 L -58.82353 58.82353 z" stroke-linecap="round" />
</g>
		<g transform="matrix(0.0247887746 0 0 0.1648051431 24.7175285952 -0.3671523681)" id="091hniad1ZIIHdceTxA7-"  >
<path style="stroke: rgb(158,254,74); stroke-width: 0; stroke-dasharray: none; stroke-linecap: butt; stroke-dashoffset: 0; stroke-linejoin: miter; stroke-miterlimit: 4; fill: rgb(79,77,61); fill-rule: nonzero; opacity: 1;"  transform=" translate(0, 0)" d="M -58.82353 -58.82353 L 58.82353 -58.82353 L 58.82353 58.82353 L -58.82353 58.82353 z" stroke-linecap="round" />
</g>
		<g transform="matrix(0.0247887746 0 0 0.1648051431 34.3390751786 -0.3671522723)" id="D4aHrLFa8mFtL1NjiOUbJ"  >
<path style="stroke: rgb(158,254,74); stroke-width: 0; stroke-dasharray: none; stroke-linecap: butt; stroke-dashoffset: 0; stroke-linejoin: miter; stroke-miterlimit: 4; fill: rgb(79,77,61); fill-rule: nonzero; opacity: 1;"  transform=" translate(0, 0)" d="M -58.82353 -58.82353 L 58.82353 -58.82353 L 58.82353 58.82353 L -58.82353 58.82353 z" stroke-linecap="round" />
</g>
		<g transform="matrix(0.0247887746 0 0 0.1648051431 43.5854531236 0.2202917395)" id="3W3RYtyLluqZ_Gy9Mn1-O"  >
<path style="stroke: rgb(158,254,74); stroke-width: 0; stroke-dasharray: none; stroke-linecap: butt; stroke-dashoffset: 0; stroke-linejoin: miter; stroke-miterlimit: 4; fill: rgb(79,77,61); fill-rule: nonzero; opacity: 1;"  transform=" translate(0, 0)" d="M -58.82353 -58.82353 L 58.82353 -58.82353 L 58.82353 58.82353 L -58.82353 58.82353 z" stroke-linecap="round" />
</g>
		<g transform="matrix(0.0247887746 0 0 0.1648051431 53.2069997069 0.2202918353)" id="AD2_XX2uIHSQ_aMhIj6nq"  >
<path style="stroke: rgb(158,254,74); stroke-width: 0; stroke-dasharray: none; stroke-linecap: butt; stroke-dashoffset: 0; stroke-linejoin: miter; stroke-miterlimit: 4; fill: rgb(79,77,61); fill-rule: nonzero; opacity: 1;"  transform=" translate(0, 0)" d="M -58.82353 -58.82353 L 58.82353 -58.82353 L 58.82353 58.82353 L -58.82353 58.82353 z" stroke-linecap="round" />
</g>
		<g transform="matrix(0.0247887746 0 0 0.1648051431 62.6420568968 -0.0734302667)" id="DztQs4AjnJJsYrysa_oGo"  >
<path style="stroke: rgb(158,254,74); stroke-width: 0; stroke-dasharray: none; stroke-linecap: butt; stroke-dashoffset: 0; stroke-linejoin: miter; stroke-miterlimit: 4; fill: rgb(79,77,61); fill-rule: nonzero; opacity: 1;"  transform=" translate(0, 0)" d="M -58.82353 -58.82353 L 58.82353 -58.82353 L 58.82353 58.82353 L -58.82353 58.82353 z" stroke-linecap="round" />
</g>
		<g transform="matrix(0.0247887746 0 0 0.1648051431 72.2636034802 -0.0734301709)" id="c7_nSWVt5jSGqkfXx6-kh"  >
<path style="stroke: rgb(158,254,74); stroke-width: 0; stroke-dasharray: none; stroke-linecap: butt; stroke-dashoffset: 0; stroke-linejoin: miter; stroke-miterlimit: 4; fill: rgb(79,77,61); fill-rule: nonzero; opacity: 1;"  transform=" translate(0, 0)" d="M -58.82353 -58.82353 L 58.82353 -58.82353 L 58.82353 58.82353 L -58.82353 58.82353 z" stroke-linecap="round" />
</g>
</g>
</g>
<g transform="matrix(0.0320434791 0 0 0.2130371606 686.6199572929 602.7105830977)" id="nMazawsooCBsmUI6TbKT7"  >
<path style="stroke: rgb(158,254,74); stroke-width: 0; stroke-dasharray: none; stroke-linecap: butt; stroke-dashoffset: 0; stroke-linejoin: miter; stroke-miterlimit: 4; fill: rgb(79,77,61); fill-rule: nonzero; opacity: 1;"  transform=" translate(0, 0)" d="M -58.82353 -58.82353 L 58.82353 -58.82353 L 58.82353 58.82353 L -58.82353 58.82353 z" stroke-linecap="round" />
</g>
<g transform="matrix(1.9495922133 0 0 1.1745633475 478.5969891591 256.3192895863)" id="2oUnMFV1dIhvWsk4ULePT"  >
<path style="stroke: rgb(57,255,16); stroke-width: 0; stroke-dasharray: none; stroke-linecap: butt; stroke-dashoffset: 0; stroke-linejoin: miter; stroke-miterlimit: 4; fill: rgb(254,252,234); fill-rule: nonzero; opacity: 1;"  transform=" translate(0, 0)" d="M -92.59259 -61.4202 C -92.59259 -78.63624 -84.18436 -92.59259 -73.81228 -92.59259 L 74.80311999999999 -92.59259 L 74.80311999999999 -92.59259 C 84.62796999999999 -92.59259 92.59259 -79.37256000000001 92.59259 -63.064840000000004 L 92.59259 55.971869999999996 L 92.59259 55.971869999999996 C 92.59259 76.19693 82.71476 92.59259 70.52985 92.59259 L -92.59259000000002 92.59259 z" stroke-linecap="round" />
</g>
<g transform="matrix(0.4665702564 0 0 0.5692804547 290.2479110071 354.351944122)" id="4dNNYMWS9cP14AiDp558k"  >
<path style="stroke: rgb(0,0,0); stroke-width: 0; stroke-dasharray: none; stroke-linecap: butt; stroke-dashoffset: 0; stroke-linejoin: miter; stroke-miterlimit: 4; fill: rgb(254,252,234); fill-rule: nonzero; opacity: 1;"  transform=" translate(0, 0)" d="M 20.48786 18.83643 L -20.487849999999998 18.83643 C -20.487849999999998 18.83643 11.29503 13.43016 15.302880000000005 -12.1856 C 19.310730000000007 -37.80136 20.487860000000005 18.83643 20.487860000000005 18.83643 z" stroke-linecap="round" />
</g>
</svg>